HIERARCHY
ROOT Hips
{
	OFFSET 0.00 0.00 0.00
	CHANNELS 6 Xposition Yposition Zposition Xrotation Yrotation Zrotation
	JOINT Spine
	{
		OFFSET 0.00000 7.50895 0.00000
		CHANNELS 3 Xrotation Yrotation Zrotation
		JOINT Head
		{
			OFFSET 0.00000 13.86115 0.00000
			CHANNELS 3 Xrotation Yrotation Zrotation
			End Site
			{
				OFFSET 0.00000 4.52755 0.00000
			}
		}
		JOINT LeftShoulder
		{
			OFFSET 0.00000 8.20478 0.00000
			CHANNELS 3 Xrotation Yrotation Zrotation
			JOINT LeftArm
			{
				OFFSET 6.63596 0.00000 0.00000
				CHANNELS 3 Xrotation Yrotation Zrotation
				JOINT LeftForeArm
				{
					OFFSET 10.27422 0.00000 0.00000
					CHANNELS 3 Yrotation Zrotation Xrotation
					JOINT LeftHand
					{
						OFFSET 8.52215 0.00000 0.00000
						CHANNELS 3 Xrotation Yrotation Zrotation
						JOINT LeftHandThumb1
						{
							OFFSET 0.00000 0.00000 0.00000
							CHANNELS 3 Xrotation Zrotation Yrotation
							End Site
							{
								OFFSET 0.00000 0.00000 3.93700
							}
						}
						End Site
						{
							OFFSET 3.93700 0.00000 0.00000
						}
					}
				}
			}
		}
		JOINT RightShoulder
		{
			OFFSET 0.00000 8.20478 0.00000
			CHANNELS 3 Xrotation Yrotation Zrotation
			JOINT RightArm
			{
				OFFSET -6.63596 0.00000 0.00000
				CHANNELS 3 Xrotation Yrotation Zrotation
				JOINT RightForeArm
				{
					OFFSET -10.27422 0.00000 0.00000
					CHANNELS 3 Yrotation Zrotation Xrotation
					JOINT RightHand
					{
						OFFSET -8.52215 0.00000 0.00000
						CHANNELS 3 Xrotation Yrotation Zrotation
						JOINT RightHandThumb1
						{
							OFFSET 0.00000 0.00000 0.00000
							CHANNELS 3 Xrotation Zrotation Yrotation
							End Site
							{
								OFFSET 0.00000 0.00000 3.93700
							}
						}
						End Site
						{
							OFFSET -3.93700 0.00000 0.00000
						}
					}
				}
			}
		}
	}
	JOINT LeftUpLeg
	{
		OFFSET 3.00056 0.00000 0.00000
		CHANNELS 3 Xrotation Yrotation Zrotation
		JOINT LeftLeg
		{
			OFFSET 0.00000 -16.49085 0.00000
			CHANNELS 3 Xrotation Yrotation Zrotation
			JOINT LeftFoot
			{
				OFFSET 0.00000 -14.55658 0.00000
				CHANNELS 3 Xrotation Yrotation Zrotation
				JOINT LeftToeBase
				{
					OFFSET 0.00000 -1.25038 4.66650
					CHANNELS 3 Xrotation Yrotation Zrotation
					End Site
					{
						OFFSET 0.00000 0.00000 2.95275
					}
				}
			}
		}
	}
	JOINT RightUpLeg
	{
		OFFSET -3.00056 0.00000 0.00000
		CHANNELS 3 Xrotation Yrotation Zrotation
		JOINT RightLeg
		{
			OFFSET 0.00000 -16.49085 0.00000
			CHANNELS 3 Xrotation Yrotation Zrotation
			JOINT RightFoot
			{
				OFFSET 0.00000 -14.55658 0.00000
				CHANNELS 3 Xrotation Yrotation Zrotation
				JOINT RightToeBase
				{
					OFFSET 0.00000 -1.25038 4.66650
					CHANNELS 3 Xrotation Yrotation Zrotation
					End Site
					{
						OFFSET 0.00000 0.00000 2.95275
					}
				}
			}
		}
	}
}
MOTION
Frames: 13
Frame Time: 0.008333
 -3.9058 32.7982 -7.1739 14.0084 1.6307 5.0982 -11.4065 5.1267 -1.3268 -11.4065 -1.9977 -1.4461 11.4030 21.7102 23.2168 -29.0879 -2.6625 -34.0855 -12.6019 -0.0000 12.0429 5.2344 27.2945 -11.2979 33.1476 -0.0000 26.2537 -22.9601 -5.6948 -38.8857 -2.4827 -9.4638 31.5911 15.0461 -0.0000 27.1899 1.0493 -10.6110 5.6801 32.8623 0.0000 -24.3270 -13.9231 5.5314 6.1086 7.3333 -0.0000 0.0000 -6.4550 -0.1877 -37.3661 5.1762 0.0000 0.0000 -11.8695 -9.9495 -16.7867 -0.5165 -0.0000 -0.0000 -2.3081 -14.7745 7.2048 1.2598 -0.0000 0.0000
 -3.9790 32.8075 -7.2103 14.1056 1.7844 5.0448 -11.3850 5.0391 -1.2304 -11.5745 -2.0053 -1.2649 11.4005 21.6795 23.2434 -29.1385 -2.5047 -34.1492 -12.6559 -0.0000 12.1245 5.2235 27.2668 -11.2851 33.1476 -0.0000 26.2537 -22.9711 -5.6893 -38.7682 -2.5353 -9.5255 31.6374 15.1184 -0.0000 27.2497 1.0629 -10.4928 5.8169 32.8623 0.0000 -24.3270 -14.4781 5.1804 6.5988 8.1578 0.0000 0.0000 -6.6138 -2.0688 -38.1903 3.5058 0.0000 0.0000 -11.9460 -10.0266 -16.6229 -0.5872 0.0000 0.0000 -2.3476 -14.8303 7.0365 1.1984 -0.0000 0.0000
 -4.0454 32.8146 -7.2488 14.1935 1.9308 4.9882 -11.3352 5.0208 -1.1302 -11.7890 -2.0719 -1.0786 11.2992 21.5314 23.3182 -28.9762 -2.4212 -34.1588 -12.6806 -0.0000 12.0873 5.1379 27.1715 -11.1389 33.1476 -0.0000 26.2537 -23.0004 -5.7377 -38.7330 -2.5544 -9.5766 31.7673 15.1638 -0.0000 27.3337 1.0469 -10.4123 5.7738 32.8623 0.0000 -24.3270 -15.0284 4.8477 7.0822 8.9633 -0.0000 -0.0000 -6.7365 -3.8100 -39.0725 1.9038 0.0000 0.0000 -12.0348 -10.1515 -16.4694 -0.6380 -0.0000 0.0000 -2.3862 -14.7579 6.8344 1.1086 -0.0000 0.0000
 -4.1069 32.8197 -7.2874 14.2956 1.9985 4.9264 -11.2940 5.0379 -1.0283 -12.0012 -2.1654 -0.8479 11.2883 21.4740 23.3555 -28.9844 -2.2931 -34.1509 -12.8068 -0.0000 12.0911 5.1194 27.3663 -11.0285 33.1476 -0.0000 26.2537 -23.1187 -5.7002 -38.6686 -2.4503 -9.6052 31.8966 15.2199 -0.0000 27.3633 1.0377 -10.3827 5.7393 32.8623 0.0000 -24.3270 -15.5645 4.5420 7.5830 9.7596 -0.0000 0.0000 -6.9457 -5.1599 -39.8957 1.5851 0.0000 0.0000 -12.1387 -10.1954 -16.3106 -0.6986 0.0000 0.0000 -2.3962 -14.7347 6.7390 1.1685 0.0000 0.0000
 -4.1589 32.8222 -7.3231 14.3925 2.0098 4.8281 -11.2696 5.0920 -0.8363 -12.1903 -2.2065 -0.7405 11.3143 21.4694 23.3603 -29.0524 -2.2070 -34.1713 -12.8846 -0.0000 12.1420 5.0072 27.3622 -10.7926 33.1476 -0.0000 26.2537 -23.0415 -5.7570 -38.6427 -2.5417 -9.6228 32.0660 15.2412 -0.0000 27.3735 1.0253 -10.2748 5.7295 32.8623 0.0000 -24.3270 -16.0381 4.2091 8.0979 10.4875 0.0000 0.0000 -7.2727 -6.1840 -39.6169 0.9282 -0.0000 -0.0000 -12.2567 -10.3001 -16.1311 -0.7803 -0.0000 -0.0000 -2.3957 -14.6692 6.7769 1.2521 -0.0000 -0.0000
 -4.2047 32.8234 -7.3564 14.4862 1.9981 4.7189 -11.2542 5.1628 -0.6441 -12.3632 -2.3027 -0.5596 11.3530 21.4683 23.3509 -29.0846 -2.2247 -34.1179 -12.8695 -0.0000 12.0647 4.8589 27.2267 -10.5257 33.1476 -0.0000 26.2537 -23.0288 -5.7624 -38.5574 -2.4874 -9.5857 32.1682 15.2596 -0.0000 27.2825 1.0251 -10.2542 5.7399 32.8623 0.0000 -24.3270 -16.4665 3.7783 8.6128 11.2230 -0.0000 -0.0000 -7.7124 -6.4043 -39.0538 1.0965 -0.0000 -0.0000 -12.3795 -10.3843 -15.9472 -0.8148 0.0000 0.0000 -2.4087 -14.5350 6.7791 1.2720 0.0000 0.0000
 -4.2515 32.8216 -7.3886 14.5825 1.9403 4.5708 -11.2487 5.2665 -0.4211 -12.5372 -2.3565 -0.3759 11.3421 21.3868 23.4049 -29.1040 -2.0667 -34.0642 -12.9978 -0.0000 12.1428 4.8959 27.4569 -10.5243 33.1476 -0.0000 26.2537 -23.0713 -5.7416 -38.4986 -2.3949 -9.5652 32.3087 15.2020 -0.0000 27.2972 0.9704 -9.8249 5.6690 32.8623 0.0000 -24.3270 -16.8584 3.3367 9.1752 11.9193 0.0000 0.0000 -8.1600 -5.7621 -38.1704 1.1274 0.0000 0.0000 -12.4751 -10.4444 -15.7085 -0.8994 0.0000 -0.0000 -2.3775 -14.4017 6.7570 1.2584 -0.0000 -0.0000
 -4.2880 32.8190 -7.4171 14.6466 1.8542 4.4462 -11.2123 5.3778 -0.2300 -12.6816 -2.4983 -0.2042 11.4276 21.4065 23.4023 -29.0676 -2.1539 -33.9546 -12.9493 -0.0000 11.9280 4.6824 27.1760 -10.1670 33.1476 -0.0000 26.2537 -23.0464 -5.7987 -38.4144 -2.3984 -9.4235 32.5015 15.1860 -0.0000 27.0839 0.9926 -10.2174 5.5786 32.8623 0.0000 -24.3270 -17.1466 2.8674 9.7048 12.5364 0.0000 -0.0000 -8.4635 -4.4601 -37.4130 1.2213 0.0000 -0.0000 -12.5522 -10.4888 -15.5077 -0.9607 0.0000 -0.0000 -2.3589 -14.2679 6.7711 1.3072 -0.0000 -0.0000
 -4.3154 32.8153 -7.4413 14.7164 1.7066 4.3488 -11.1950 5.5670 -0.0732 -12.7817 -2.6203 0.0465 11.3858 21.3680 23.5099 -29.0608 -2.0549 -33.9035 -13.1116 -0.0000 11.9067 4.6768 27.3856 -10.0848 33.1476 -0.0000 26.2537 -23.0512 -5.8356 -38.3165 -2.3338 -9.3224 32.6513 15.1681 -0.0000 27.1548 0.9970 -10.1707 5.6287 32.8623 0.0000 -24.3270 -17.3338 2.4264 10.2013 13.0052 -0.0000 0.0000 -8.8137 -2.4694 -35.9356 1.5808 -0.0000 -0.0000 -12.6632 -10.5298 -15.3351 -1.0085 0.0000 0.0000 -2.3208 -14.0771 6.7306 1.2180 -0.0000 -0.0000
 -4.3425 32.8091 -7.4608 14.7590 1.5118 4.2195 -11.1705 5.7634 0.1047 -12.8617 -2.7486 0.3013 11.4398 21.3840 23.5803 -29.1074 -2.0450 -33.8091 -13.1578 -0.0000 11.8452 4.6717 27.3126 -10.0983 33.1476 -0.0000 26.2537 -23.0421 -5.8841 -38.1869 -2.3404 -9.2283 32.8141 15.1361 -0.0000 27.2353 0.9731 -9.9790 5.5982 32.8623 0.0000 -24.3270 -17.4501 2.2072 10.7756 13.3207 0.0000 0.0000 -9.0154 -0.3252 -34.5040 1.6390 -0.0000 -0.0000 -12.7252 -10.5164 -15.1166 -1.0516 0.0000 0.0000 -2.3072 -13.9184 6.6835 1.2075 0.0000 -0.0000
 -4.3620 32.8028 -7.4765 14.8139 1.2491 4.1051 -11.1868 5.9948 0.2697 -12.8898 -2.8684 0.5737 11.4689 21.3862 23.6952 -29.1028 -1.9735 -33.7331 -13.2279 -0.0000 11.8521 4.5775 27.3763 -9.8770 33.1476 -0.0000 26.2537 -23.0189 -5.8986 -38.0532 -2.2596 -9.1067 33.0212 15.2098 -0.0000 27.2107 0.9946 -10.2148 5.5910 32.8623 0.0000 -24.3270 -17.5405 2.2489 11.3499 13.4919 0.0000 0.0000 -9.1011 2.0212 -32.7897 1.1121 0.0000 0.0000 -12.8311 -10.5275 -14.9191 -1.0857 -0.0000 0.0000 -2.2238 -13.6781 6.7487 1.0500 0.0000 0.0000
 -4.3744 32.7963 -7.4896 14.8483 0.9683 4.0192 -11.1768 6.2389 0.3925 -12.9158 -2.9838 0.8439 11.5292 21.4156 23.7503 -29.1777 -1.9635 -33.5831 -13.2524 -0.0000 11.7759 4.5369 27.4104 -9.7797 33.1476 -0.0000 26.2537 -23.0013 -5.9551 -37.9258 -2.2677 -9.0377 33.2559 15.3308 -0.0000 27.4707 1.0101 -10.2088 5.6810 32.8623 0.0000 -24.3270 -17.5614 2.4411 11.9160 13.5009 0.0000 -0.0000 -9.1823 4.4156 -31.0368 1.3127 -0.0000 0.0000 -12.9086 -10.4741 -14.7491 -1.1061 0.0000 0.0000 -2.2388 -13.4435 6.6461 1.1556 0.0000 0.0000
 -4.3801 32.7886 -7.4960 14.8628 0.6664 3.9416 -11.1762 6.4838 0.4917 -12.8687 -3.0878 1.1484 11.5262 21.4085 23.8697 -29.1111 -1.9387 -33.4428 -13.3026 -0.0000 11.6142 4.4747 27.4565 -9.6330 33.1476 -0.0000 26.2537 -22.9960 -6.0069 -37.7619 -2.2410 -8.8693 33.4416 15.3321 -0.0000 27.4913 1.0245 -10.0942 5.8259 32.8623 0.0000 -24.3270 -17.5178 2.8724 12.5068 13.3043 0.0000 0.0000 -9.0753 6.4169 -28.9686 1.6624 -0.0000 0.0000 -12.9841 -10.5017 -14.5962 -1.1328 0.0000 0.0000 -2.2146 -13.1454 6.5693 1.1566 -0.0000 0.0000
